<svg width="22" height="23" viewBox="0 0 22 23" fill="none" xmlns="http://www.w3.org/2000/svg">
<g clip-path="url(#clip0_171_15527)">
<path d="M7.99219 13.6484C7.99219 14.835 8.95409 15.7969 10.1406 15.7969H11.8594C13.0459 15.7969 14.0078 14.835 14.0078 13.6484C14.0078 12.4619 13.0459 11.5 11.8594 11.5H10.1406C8.95409 11.5 7.99219 10.5381 7.99219 9.35156C7.99219 8.16502 8.95409 7.20312 10.1406 7.20312H11.8594C13.0459 7.20312 14.0078 8.16502 14.0078 9.35156M11 7.20312V4.625M11 18.375V15.7969M20.3517 2.34198L16.0712 2.7165M16.0712 2.7165L16.4457 6.997M16.0712 2.7165C19.1017 4.46997 21.1406 7.74689 21.1406 11.5C21.1406 17.1005 16.6005 21.6406 11 21.6406M1.64832 20.658L5.92883 20.2835M5.92883 20.2835L5.55431 16.003M5.92883 20.2835C2.89829 18.53 0.859375 15.2531 0.859375 11.5C0.859375 5.8995 5.3995 1.35938 11 1.35938" stroke="#3A9FF0" stroke-width="1.71875" stroke-miterlimit="10"/>
</g>
<defs>
<clipPath id="clip0_171_15527">
<rect width="22" height="22" fill="white" transform="translate(0 0.5)"/>
</clipPath>
</defs>
</svg>
