<svg width="21" height="21" viewBox="0 0 21 21" fill="none" xmlns="http://www.w3.org/2000/svg">
<g clip-path="url(#clip0_919_2867)">
<path d="M15.9601 13.5575C15.4089 13.5575 14.9635 14.003 14.9635 14.5541V17.6846C14.9635 18.2348 14.517 18.6813 13.9668 18.6813H3.00361C2.45344 18.6813 2.00698 18.2348 2.00698 17.6846V4.72818C2.00698 4.17801 2.45348 3.73155 3.00361 3.73155H8.79415C9.34528 3.73155 9.79078 3.28604 9.79078 2.73491C9.79078 2.18378 9.34528 1.73828 8.79415 1.73828H3.00361C1.35515 1.7382 0.0136719 3.07972 0.0136719 4.72818V17.6846C0.0136719 19.3331 1.35515 20.6746 3.00361 20.6746H13.9668C15.6152 20.6746 16.9567 19.3341 16.9567 17.6846V14.5542C16.9567 14.003 16.5112 13.5575 15.9601 13.5575Z" fill="white"/>
<path d="M19.4151 1.61311C18.6915 0.889559 17.7466 0.524758 16.7949 0.504843C15.7932 0.482924 14.7856 0.845682 14.0281 1.60414L7.28079 8.35148C6.2961 9.34018 5.75391 10.6518 5.75391 12.0451V14.2775C5.75391 14.8287 6.19941 15.2742 6.75054 15.2742H8.98303C10.3764 15.2742 11.6879 14.732 12.6776 13.7463L19.416 7.00792C20.901 5.52199 20.901 3.10013 19.4151 1.61311ZM11.2694 12.3361C10.6585 12.9451 9.84518 13.281 8.98311 13.281H7.74721V12.0451C7.74721 11.183 8.08308 10.3697 8.69103 9.75976L13.1391 5.3117L15.7164 7.88903L11.2694 12.3361ZM18.0058 5.59972L17.1257 6.47979L14.5484 3.90246L15.4284 3.02243C16.14 2.31082 17.2961 2.31282 18.0057 3.02243C18.7154 3.733 18.7154 4.88911 18.0058 5.59972Z" fill="white"/>
</g>
<defs>
<clipPath id="clip0_919_2867">
<rect width="20.5164" height="20.5164" fill="white" transform="translate(0.0117188 0.331055)"/>
</clipPath>
</defs>
</svg>
