<svg width="26" height="26" viewBox="0 0 26 26" fill="none" xmlns="http://www.w3.org/2000/svg">
<g clip-path="url(#clip0_1022_264)">
<path d="M19.8571 16.618C19.1855 16.618 18.6426 17.1608 18.6426 17.8324V21.647C18.6426 22.3174 18.0986 22.8615 17.4282 22.8615H4.06913C3.39873 22.8615 2.85469 22.3174 2.85469 21.647V5.85912C2.85469 5.18872 3.39878 4.64468 4.06913 4.64468H11.1251C11.7967 4.64468 12.3395 4.10182 12.3395 3.43025C12.3395 2.75868 11.7967 2.21582 11.1251 2.21582H4.06913C2.06042 2.21572 0.425781 3.85041 0.425781 5.85912V21.647C0.425781 23.6557 2.06042 25.2904 4.06913 25.2904H17.4281C19.4368 25.2904 21.0715 23.6569 21.0715 21.647V17.8324C21.0715 17.1608 20.5286 16.618 19.8571 16.618Z" fill="#FFC727"/>
<path d="M24.0676 2.06108C23.1859 1.1794 22.0346 0.734881 20.8748 0.710614C19.6543 0.683905 18.4265 1.12594 17.5035 2.05014L9.28159 10.272C8.0817 11.4768 7.42102 13.075 7.42102 14.7728V17.4931C7.42102 18.1647 7.96388 18.7076 8.63545 18.7076H11.3558C13.0536 18.7076 14.6519 18.0469 15.8578 16.8458L24.0687 8.63484C25.8783 6.82418 25.8783 3.87306 24.0676 2.06108ZM14.1419 15.1275C13.3974 15.8695 12.4064 16.2788 11.3559 16.2788H9.84994V14.7728C9.84994 13.7223 10.2592 12.7313 11 11.9881L16.4201 6.56794L19.5607 9.70851L14.1419 15.1275ZM22.3504 6.91891L21.278 7.9913L18.1374 4.85073L19.2097 3.77838C20.0769 2.91126 21.4856 2.9137 22.3503 3.77838C23.215 4.64424 23.215 6.053 22.3504 6.91891Z" fill="#FFC727"/>
</g>
<defs>
<clipPath id="clip0_1022_264">
<rect width="25" height="25" fill="white" transform="translate(0.425781 0.5)"/>
</clipPath>
</defs>
</svg>
