<svg width="9" height="8" viewBox="0 0 9 8" fill="none" xmlns="http://www.w3.org/2000/svg">
<path d="M4.48168 2.87448V4.27051M4.48168 5.66654H4.48517M3.99841 1.09166L1.12786 6.04985C0.968641 6.32487 0.889032 6.46238 0.900797 6.57525C0.911062 6.67367 0.962635 6.76312 1.04268 6.82133C1.13445 6.88806 1.29335 6.88806 1.61112 6.88806H7.35219C7.67 6.88806 7.82887 6.88806 7.92065 6.82133C8.00068 6.76312 8.05227 6.67367 8.06253 6.57525C8.07429 6.46238 7.99468 6.32487 7.83546 6.04985L4.96492 1.09166C4.80629 0.817626 4.72696 0.680613 4.62348 0.634597C4.53319 0.594457 4.43013 0.594457 4.33988 0.634597C4.23636 0.680613 4.15704 0.81763 3.99841 1.09166Z" stroke="#FF3B30" stroke-width="0.698014" stroke-linecap="round" stroke-linejoin="round"/>
</svg>
