<svg width="24" height="24" viewBox="0 0 24 24" fill="none" xmlns="http://www.w3.org/2000/svg">
<g clip-path="url(#clip0_128_14973)">
<path d="M20.8234 5.22728C20.3339 4.73758 19.7528 4.34911 19.1131 4.08407C18.4735 3.81903 17.7879 3.68262 17.0955 3.68262C16.4031 3.68262 15.7175 3.81903 15.0779 4.08407C14.4382 4.34911 13.8571 4.73758 13.3676 5.22728L12.3518 6.24312L11.3359 5.22728C10.3472 4.23858 9.00625 3.68313 7.60801 3.68313C6.20977 3.68313 4.8688 4.23858 3.88009 5.22728C2.89139 6.21599 2.33594 7.55696 2.33594 8.9552C2.33594 10.3534 2.89139 11.6944 3.88009 12.6831L12.3518 21.1548L20.8234 12.6831C21.3131 12.1936 21.7016 11.6125 21.9666 10.9728C22.2317 10.3332 22.3681 9.64758 22.3681 8.9552C22.3681 8.26282 22.2317 7.57722 21.9666 6.93757C21.7016 6.29792 21.3131 5.71676 20.8234 5.22728Z" stroke="#0085FF" stroke-width="2" stroke-linecap="round" stroke-linejoin="round"/>
</g>
<defs>
<clipPath id="clip0_128_14973">
<rect width="23" height="23" fill="white" transform="translate(0.851562 0.80957)"/>
</clipPath>
</defs>
</svg>
