<svg width="24" height="24" viewBox="0 0 24 24" fill="none" xmlns="http://www.w3.org/2000/svg">
<path d="M9.32974 8.71908C9.55505 8.07859 9.99976 7.53851 10.5851 7.19449C11.1705 6.85048 11.8587 6.72472 12.5279 6.83951C13.1971 6.95429 13.804 7.3022 14.2413 7.82162C14.6785 8.34104 14.9178 8.99845 14.9168 9.67741C14.9168 11.5941 12.0418 12.5524 12.0418 12.5524M12.1185 16.3857H12.1281M21.7018 11.5941C21.7018 16.8868 17.4112 21.1774 12.1185 21.1774C6.82576 21.1774 2.53516 16.8868 2.53516 11.5941C2.53516 6.30135 6.82576 2.01074 12.1185 2.01074C17.4112 2.01074 21.7018 6.30135 21.7018 11.5941Z" stroke="#0085FF" stroke-width="2" stroke-linecap="round" stroke-linejoin="round"/>
</svg>
