<svg width="24" height="24" viewBox="0 0 24 24" fill="none" xmlns="http://www.w3.org/2000/svg">
<path d="M12.1191 7.62283L13.0034 10.4965L13.2206 11.2025H13.9591H16.4673L14.4139 12.6655L13.8288 13.0824L14.0371 13.77L14.8647 16.5009L12.7255 14.8698L12.1191 14.4074L11.5128 14.8698L9.37361 16.5009L10.2012 13.77L10.4095 13.0824L9.82442 12.6655L7.77097 11.2025H10.2791H11.0177L11.2349 10.4965L12.1191 7.62283ZM4.88578 19.5058C5.26194 19.882 5.65471 20.2225 6.06367 20.5273L5.98184 20.7973C5.52039 20.4669 5.09001 20.1016 4.69 19.7016L3.98289 20.4087L4.69 19.7016C3.74803 18.7596 2.9987 17.6492 2.44293 16.3613C1.89554 15.0927 1.61914 13.7331 1.61914 12.2725C1.61914 11.3151 1.73788 10.4011 1.97385 9.52774L2.21863 9.70215C2.01909 10.5177 1.91914 11.3751 1.91914 12.2725C1.91914 15.1004 2.91182 17.5319 4.88578 19.5058ZM6.54432 21.1733L6.76485 21.0051C8.33961 21.982 10.1314 22.4725 12.1191 22.4725C14.1068 22.4725 15.8987 21.982 17.4734 21.0051L17.694 21.1733C17.2277 21.4638 16.7325 21.7223 16.2079 21.9487C14.9394 22.4961 13.5798 22.7725 12.1191 22.7725C10.6585 22.7725 9.2989 22.4961 8.03034 21.9487C7.50574 21.7223 7.01061 21.4638 6.54432 21.1733ZM19.5483 19.7016C19.1483 20.1016 18.7179 20.4669 18.2564 20.7973L18.1746 20.5273C18.5836 20.2225 18.9763 19.882 19.3525 19.5058C21.3265 17.5319 22.3191 15.1004 22.3191 12.2725C22.3191 11.3751 22.2192 10.5177 22.0197 9.70215L22.2644 9.52775C22.5004 10.4011 22.6191 11.3151 22.6191 12.2725C22.6191 13.7331 22.3427 15.0927 21.7953 16.3613C21.2396 17.6492 20.4903 18.7596 19.5483 19.7016ZM22.1706 9.20246H21.8834C21.4153 7.64997 20.5708 6.2574 19.3525 5.0391C17.4691 3.15569 15.1692 2.1656 12.5058 2.07873L12.4127 1.77622C13.7624 1.8109 15.0248 2.0857 16.2079 2.59625C17.4959 3.15202 18.6063 3.90135 19.5483 4.84332L20.2554 4.13621L19.5483 4.84332C20.4903 5.78529 21.2396 6.89568 21.7953 8.18366C21.9392 8.51692 22.0643 8.85646 22.1706 9.20246ZM11.8256 1.77622L11.7325 2.07873C9.06909 2.1656 6.7692 3.15569 4.88578 5.0391C3.66748 6.2574 2.82297 7.64997 2.35492 9.20246H2.06773C2.17403 8.85646 2.29913 8.51692 2.44293 8.18366C2.9987 6.89568 3.74803 5.78529 4.69 4.84332C5.63197 3.90135 6.74236 3.15202 8.03034 2.59625C9.21352 2.0857 10.4759 1.8109 11.8256 1.77622Z" stroke="#0085FF" stroke-width="2"/>
</svg>
