<svg width="24" height="24" viewBox="0 0 24 24" fill="none" xmlns="http://www.w3.org/2000/svg">
<path d="M7.32747 10.8398V7.00651C7.32747 5.73568 7.83231 4.5169 8.73092 3.61829C9.62953 2.71968 10.8483 2.21484 12.1191 2.21484C13.39 2.21484 14.6087 2.71968 15.5074 3.61829C16.406 4.5169 16.9108 5.73568 16.9108 7.00651V10.8398M5.41081 10.8398H18.8275C19.886 10.8398 20.7441 11.698 20.7441 12.7565V19.4648C20.7441 20.5234 19.886 21.3815 18.8275 21.3815H5.41081C4.35226 21.3815 3.49414 20.5234 3.49414 19.4648V12.7565C3.49414 11.698 4.35226 10.8398 5.41081 10.8398Z" stroke="#0085FF" stroke-width="2" stroke-linecap="round" stroke-linejoin="round"/>
</svg>
