<svg width="25" height="25" viewBox="0 0 25 25" fill="none" xmlns="http://www.w3.org/2000/svg">
<mask id="mask0_657_14632" style="mask-type:alpha" maskUnits="userSpaceOnUse" x="0" y="0" width="25" height="25">
<rect x="0.232422" y="0.40625" width="24" height="24" fill="black"/>
</mask>
<g mask="url(#mask0_657_14632)">
<path fill-rule="evenodd" clip-rule="evenodd" d="M4.23242 16.4062V18.4062C4.23242 20.6162 6.02342 22.4062 8.23242 22.4062H18.2324C20.4424 22.4062 22.2324 20.6162 22.2324 18.4062C22.2324 15.0772 22.2324 9.73625 22.2324 6.40625C22.2324 4.19725 20.4424 2.40625 18.2324 2.40625C15.3734 2.40625 11.0924 2.40625 8.23242 2.40625C6.02342 2.40625 4.23242 4.19725 4.23242 6.40625V8.40625C4.23242 8.95825 4.68042 9.40625 5.23242 9.40625C5.78442 9.40625 6.23242 8.95825 6.23242 8.40625C6.23242 8.40625 6.23242 7.46925 6.23242 6.40625C6.23242 5.30225 7.12842 4.40625 8.23242 4.40625H18.2324C19.3374 4.40625 20.2324 5.30225 20.2324 6.40625V18.4062C20.2324 19.5112 19.3374 20.4062 18.2324 20.4062C15.3734 20.4062 11.0924 20.4062 8.23242 20.4062C7.12842 20.4062 6.23242 19.5112 6.23242 18.4062C6.23242 17.3442 6.23242 16.4062 6.23242 16.4062C6.23242 15.8553 5.78442 15.4062 5.23242 15.4062C4.68042 15.4062 4.23242 15.8553 4.23242 16.4062ZM11.8184 11.4062L10.5254 10.1142C10.1354 9.72324 10.1354 9.09025 10.5254 8.69925C10.9164 8.30925 11.5494 8.30925 11.9394 8.69925L14.9394 11.6992C15.3304 12.0902 15.3304 12.7232 14.9394 13.1142L11.9394 16.1142C11.5494 16.5042 10.9164 16.5042 10.5254 16.1142C10.1354 15.7232 10.1354 15.0902 10.5254 14.6992L11.8184 13.4062H3.23242C2.68042 13.4062 2.23242 12.9583 2.23242 12.4062C2.23242 11.8553 2.68042 11.4062 3.23242 11.4062H11.8184Z" fill="#E82F2F"/>
</g>
</svg>
