<svg width="25" height="25" viewBox="0 0 25 25" fill="none" xmlns="http://www.w3.org/2000/svg">
<mask id="path-1-inside-1_417_14049" fill="white">
<path d="M6.62012 23.1191C6.07012 23.1191 5.59928 22.9233 5.20762 22.5316C4.81595 22.14 4.62012 21.6691 4.62012 21.1191V3.11914C4.62012 2.56914 4.81595 2.09831 5.20762 1.70664C5.59928 1.31497 6.07012 1.11914 6.62012 1.11914H16.6201C17.1701 1.11914 17.641 1.31497 18.0326 1.70664C18.4243 2.09831 18.6201 2.56914 18.6201 3.11914V7.11914H16.6201V6.11914H6.62012V18.1191H16.6201V17.1191H18.6201V21.1191C18.6201 21.6691 18.4243 22.14 18.0326 22.5316C17.641 22.9233 17.1701 23.1191 16.6201 23.1191H6.62012ZM6.62012 20.1191V21.1191H16.6201V20.1191H6.62012ZM15.5701 16.1191L11.3201 11.8691L12.7201 10.4691L15.5701 13.3191L21.2201 7.66914L22.6201 9.06914L15.5701 16.1191ZM6.62012 4.11914H16.6201V3.11914H6.62012V4.11914Z"/>
</mask>
<path d="M18.6201 7.11914V9.11914H20.6201V7.11914H18.6201ZM16.6201 7.11914H14.6201V9.11914H16.6201V7.11914ZM16.6201 6.11914H18.6201V4.11914H16.6201V6.11914ZM6.62012 6.11914V4.11914H4.62012V6.11914H6.62012ZM6.62012 18.1191H4.62012V20.1191H6.62012V18.1191ZM16.6201 18.1191V20.1191H18.6201V18.1191H16.6201ZM16.6201 17.1191V15.1191H14.6201V17.1191H16.6201ZM18.6201 17.1191H20.6201V15.1191H18.6201V17.1191ZM6.62012 20.1191V18.1191H4.62012V20.1191H6.62012ZM6.62012 21.1191H4.62012V23.1191H6.62012V21.1191ZM16.6201 21.1191V23.1191H18.6201V21.1191H16.6201ZM16.6201 20.1191H18.6201V18.1191H16.6201V20.1191ZM15.5701 16.1191L14.1559 17.5334L15.5701 18.9476L16.9843 17.5334L15.5701 16.1191ZM11.3201 11.8691L9.9059 10.4549L8.49169 11.8691L9.9059 13.2834L11.3201 11.8691ZM12.7201 10.4691L14.1343 9.05493L12.7201 7.64071L11.3059 9.05493L12.7201 10.4691ZM15.5701 13.3191L14.1559 14.7334L15.5701 16.1476L16.9843 14.7334L15.5701 13.3191ZM21.2201 7.66914L22.6343 6.25493L21.2201 4.84071L19.8059 6.25493L21.2201 7.66914ZM22.6201 9.06914L24.0343 10.4834L25.4485 9.06914L24.0343 7.65493L22.6201 9.06914ZM6.62012 4.11914H4.62012V6.11914H6.62012V4.11914ZM16.6201 4.11914V6.11914H18.6201V4.11914H16.6201ZM16.6201 3.11914H18.6201V1.11914H16.6201V3.11914ZM6.62012 3.11914V1.11914H4.62012V3.11914H6.62012ZM6.62012 21.1191C6.60176 21.1191 6.5957 21.1176 6.59926 21.1182C6.60084 21.1185 6.60398 21.1192 6.60834 21.1205C6.61271 21.1218 6.61755 21.1235 6.62256 21.1256C6.62757 21.1277 6.632 21.1299 6.63564 21.1318C6.63928 21.1338 6.64146 21.1353 6.64214 21.1357C6.64379 21.1368 6.63672 21.1323 6.62183 21.1174L3.7934 23.9459C4.55715 24.7096 5.53547 25.1191 6.62012 25.1191V21.1191ZM6.62183 21.1174C6.60694 21.1025 6.60242 21.0955 6.60355 21.0971C6.60401 21.0978 6.60544 21.1 6.60741 21.1036C6.60939 21.1073 6.61154 21.1117 6.61363 21.1167C6.61571 21.1217 6.61741 21.1265 6.61872 21.1309C6.62003 21.1353 6.62072 21.1384 6.62102 21.14C6.6217 21.1436 6.62012 21.1375 6.62012 21.1191H2.62012C2.62012 22.2038 3.02966 23.1821 3.7934 23.9459L6.62183 21.1174ZM6.62012 21.1191V3.11914H2.62012V21.1191H6.62012ZM6.62012 3.11914C6.62012 3.10078 6.6217 3.09473 6.62102 3.09829C6.62072 3.09987 6.62003 3.10301 6.61872 3.10737C6.61741 3.11173 6.61571 3.11657 6.61363 3.12159C6.61154 3.1266 6.60939 3.13102 6.60741 3.13467C6.60544 3.1383 6.60401 3.14049 6.60355 3.14116C6.60242 3.14282 6.60694 3.13574 6.62183 3.12085L3.7934 0.292427C3.02966 1.05617 2.62012 2.03449 2.62012 3.11914H6.62012ZM6.62183 3.12085C6.63672 3.10596 6.64379 3.10145 6.64214 3.10257C6.64146 3.10303 6.63928 3.10447 6.63565 3.10644C6.632 3.10842 6.62758 3.11057 6.62256 3.11265C6.61755 3.11474 6.61271 3.11644 6.60834 3.11775C6.60398 3.11905 6.60084 3.11974 6.59926 3.12004C6.5957 3.12073 6.60176 3.11914 6.62012 3.11914V-0.880859C5.53547 -0.880859 4.55715 -0.47132 3.7934 0.292427L6.62183 3.12085ZM6.62012 3.11914H16.6201V-0.880859H6.62012V3.11914ZM16.6201 3.11914C16.6385 3.11914 16.6445 3.12073 16.641 3.12004C16.6394 3.11974 16.6362 3.11905 16.6319 3.11775C16.6275 3.11644 16.6227 3.11474 16.6177 3.11265C16.6127 3.11057 16.6082 3.10842 16.6046 3.10644C16.601 3.10447 16.5988 3.10303 16.5981 3.10257C16.5964 3.10145 16.6035 3.10596 16.6184 3.12085L19.4468 0.292427C18.6831 -0.47132 17.7048 -0.880859 16.6201 -0.880859V3.11914ZM16.6184 3.12085C16.6333 3.13574 16.6378 3.14282 16.6367 3.14116C16.6362 3.14049 16.6348 3.1383 16.6328 3.13467C16.6308 3.13102 16.6287 3.1266 16.6266 3.12159C16.6245 3.11657 16.6228 3.11173 16.6215 3.10736C16.6202 3.10301 16.6195 3.09987 16.6192 3.09829C16.6185 3.09473 16.6201 3.10078 16.6201 3.11914H20.6201C20.6201 2.03449 20.2106 1.05617 19.4468 0.292427L16.6184 3.12085ZM16.6201 3.11914V7.11914H20.6201V3.11914H16.6201ZM18.6201 5.11914H16.6201V9.11914H18.6201V5.11914ZM18.6201 7.11914V6.11914H14.6201V7.11914H18.6201ZM16.6201 4.11914H6.62012V8.11914H16.6201V4.11914ZM4.62012 6.11914V18.1191H8.62012V6.11914H4.62012ZM6.62012 20.1191H16.6201V16.1191H6.62012V20.1191ZM18.6201 18.1191V17.1191H14.6201V18.1191H18.6201ZM16.6201 19.1191H18.6201V15.1191H16.6201V19.1191ZM16.6201 17.1191V21.1191H20.6201V17.1191H16.6201ZM16.6201 21.1191C16.6201 21.1375 16.6185 21.1436 16.6192 21.14C16.6195 21.1384 16.6202 21.1353 16.6215 21.1309C16.6228 21.1265 16.6245 21.1217 16.6266 21.1167C16.6287 21.1117 16.6308 21.1073 16.6328 21.1036C16.6348 21.1 16.6362 21.0978 16.6367 21.0971C16.6378 21.0955 16.6333 21.1025 16.6184 21.1174L19.4468 23.9459C20.2106 23.1821 20.6201 22.2038 20.6201 21.1191H16.6201ZM16.6184 21.1174C16.6035 21.1323 16.5964 21.1368 16.5981 21.1357C16.5988 21.1353 16.601 21.1338 16.6046 21.1318C16.6082 21.1299 16.6127 21.1277 16.6177 21.1256C16.6227 21.1235 16.6275 21.1218 16.6319 21.1205C16.6363 21.1192 16.6394 21.1185 16.641 21.1182C16.6445 21.1176 16.6385 21.1191 16.6201 21.1191V25.1191C17.7048 25.1191 18.6831 24.7096 19.4468 23.9459L16.6184 21.1174ZM16.6201 21.1191H6.62012V25.1191H16.6201V21.1191ZM4.62012 20.1191V21.1191H8.62012V20.1191H4.62012ZM6.62012 23.1191H16.6201V19.1191H6.62012V23.1191ZM18.6201 21.1191V20.1191H14.6201V21.1191H18.6201ZM16.6201 18.1191H6.62012V22.1191H16.6201V18.1191ZM16.9843 14.7049L12.7343 10.4549L9.9059 13.2834L14.1559 17.5334L16.9843 14.7049ZM12.7343 13.2834L14.1343 11.8834L11.3059 9.05493L9.9059 10.4549L12.7343 13.2834ZM11.3059 11.8834L14.1559 14.7334L16.9843 11.9049L14.1343 9.05493L11.3059 11.8834ZM16.9843 14.7334L22.6343 9.08335L19.8059 6.25493L14.1559 11.9049L16.9843 14.7334ZM19.8059 9.08335L21.2059 10.4834L24.0343 7.65493L22.6343 6.25493L19.8059 9.08335ZM21.2059 7.65493L14.1559 14.7049L16.9843 17.5334L24.0343 10.4834L21.2059 7.65493ZM6.62012 6.11914H16.6201V2.11914H6.62012V6.11914ZM18.6201 4.11914V3.11914H14.6201V4.11914H18.6201ZM16.6201 1.11914H6.62012V5.11914H16.6201V1.11914ZM4.62012 3.11914V4.11914H8.62012V3.11914H4.62012Z" fill="#0085FF" mask="url(#path-1-inside-1_417_14049)"/>
</svg>
