<svg width="26" height="17" viewBox="0 0 26 17" fill="none" xmlns="http://www.w3.org/2000/svg">
<path d="M23.7285 0H3.12305C1.91396 0 0.925781 0.951481 0.925781 2.125V14.875C0.925781 16.0489 1.9146 17 3.12305 17H23.7285C24.9376 17 25.9258 16.0485 25.9258 14.875V2.125C25.9258 0.951197 24.9371 0 23.7285 0ZM23.3911 1.41667L13.9934 10.535C13.707 10.8128 13.1447 10.8129 12.8582 10.535L3.46045 1.41667H23.3911ZM2.39062 14.6146V2.38543L8.69263 8.5L2.39062 14.6146ZM3.46045 15.5833L9.72676 9.50338L11.8208 11.5351C12.6789 12.3677 14.173 12.3674 15.0309 11.5351L17.1249 9.50342L23.3911 15.5833H3.46045ZM24.4609 14.6146L18.1589 8.5L24.4609 2.38543V14.6146Z" fill="#0084FF"/>
</svg>
