<svg width="26" height="26" viewBox="0 0 26 26" fill="none" xmlns="http://www.w3.org/2000/svg">
<path d="M20.1862 12.2437L19.9006 12.4086C19.9726 12.3285 20.0592 12.2574 20.1604 12.199L20.2241 12.1622L20.2241 12.1622C21.193 11.6027 21.525 10.3638 20.9656 9.39488L19.9397 7.61811C19.3803 6.64917 18.1414 6.31719 17.1724 6.8766L17.6724 7.74263L17.1724 6.87661L17.1086 6.91343C17.0074 6.97187 16.9025 7.01133 16.7971 7.03363L17.0828 6.86871L17.1466 6.83188L16.6679 6.00268L17.1466 6.83188C18.1402 6.2582 19.4108 6.59865 19.9845 7.59228L21.0103 9.36906C21.584 10.3627 21.2435 11.6333 20.2499 12.2069L20.1862 12.2437ZM20.1603 14.0204C20.0591 13.962 19.9725 13.8909 19.9006 13.8108L20.1862 13.9757L20.2499 14.0125L20.7287 13.1833L20.2499 14.0125C21.2436 14.5862 21.584 15.8568 21.0103 16.8504L19.9845 18.6272C19.4108 19.6208 18.1403 19.9613 17.1467 19.3876L17.0828 19.3507L16.7972 19.1858C16.9025 19.2081 17.0074 19.2476 17.1087 19.306L17.1724 19.3428L17.1725 19.3429C18.1414 19.9023 19.3804 19.5703 19.9398 18.6014L19.0738 18.1014L19.9398 18.6014L20.9656 16.8246C21.525 15.8557 21.1931 14.6167 20.2242 14.0573C20.2241 14.0573 20.2241 14.0573 20.2241 14.0573L20.1603 14.0204ZM7.81251 6.8318L8.29127 6.00256L7.81252 6.8318L7.87624 6.86859L8.16189 7.0335C8.05654 7.01121 7.95168 6.97176 7.85047 6.91334L7.78669 6.87652C7.78668 6.87651 7.78666 6.8765 7.78665 6.87649C6.81772 6.31712 5.57878 6.6491 5.01937 7.61802L5.84387 8.09405L5.01937 7.61802L3.99355 9.3948C3.43413 10.3637 3.76612 11.6027 4.73505 12.1621L4.73509 12.1621L4.79883 12.1989C4.90008 12.2574 4.98671 12.3285 5.05872 12.4086L4.77304 12.2437L4.70923 12.2068C3.71559 11.6332 3.37515 10.3626 3.94882 9.36898L4.97464 7.5922C5.54832 6.59856 6.81888 6.25812 7.81251 6.8318ZM9.37624 6.00255L9.37624 5.92903C9.37624 5.92902 9.37624 5.92902 9.37624 5.92901C9.37625 4.78167 10.3064 3.85156 11.4537 3.85156L13.5053 3.85156C14.6527 3.85156 15.5828 4.78168 15.5828 5.92903V6.00268V6.33253C15.5494 6.23012 15.5312 6.11956 15.5312 6.00268V5.92903C15.5312 4.8102 14.6242 3.90321 13.5053 3.90321L11.4537 3.90321C10.3349 3.90321 9.42795 4.81013 9.42788 5.9289V5.92896L9.42788 6.00256C9.42788 6.11944 9.40961 6.22999 9.37624 6.33239L9.37624 6.00255ZM7.78663 19.343L7.28663 18.4769L7.78663 19.343L7.85042 19.3061C7.95165 19.2477 8.05653 19.2082 8.1619 19.1859L7.87624 19.3509L7.81245 19.3877C6.81882 19.9614 5.54826 19.6209 4.97458 18.6273L3.94876 16.8505C3.37509 15.8569 3.71553 14.5863 4.70917 14.0126L4.70919 14.0126L4.77307 13.9757L5.05873 13.8108C4.98673 13.8909 4.90011 13.962 4.79887 14.0205L4.735 14.0573L4.73499 14.0574C3.76606 14.6168 3.43407 15.8557 3.99349 16.8247L4.84721 16.3318L3.99349 16.8247L5.01931 18.6015C5.57872 19.5704 6.8177 19.9024 7.78663 19.343ZM9.37624 20.2169V19.887C9.40961 19.9894 9.42788 20.1 9.42788 20.2169V20.2905C9.42788 21.4094 10.3349 22.3164 11.4537 22.3164H13.5053C14.6242 22.3164 15.5312 21.4094 15.5312 20.2905V20.2168C15.5312 20.0999 15.5494 19.9893 15.5828 19.8869V20.2168V20.2905C15.5828 21.4379 14.6527 22.368 13.5053 22.368H11.4537C10.3064 22.368 9.37624 21.4379 9.37624 20.2905V20.2169ZM12.4793 16.1614C14.1647 16.1614 15.531 14.7951 15.531 13.1097C15.531 11.4243 14.1647 10.0581 12.4793 10.0581C10.794 10.0581 9.4277 11.4243 9.4277 13.1097C9.4277 14.7951 10.794 16.1614 12.4793 16.1614ZM15.5826 13.1097C15.5826 14.8236 14.1932 16.213 12.4793 16.213C10.7654 16.213 9.37605 14.8236 9.37605 13.1097C9.37605 11.3958 10.7654 10.0064 12.4793 10.0064C14.1932 10.0064 15.5826 11.3958 15.5826 13.1097Z" stroke="#0085FF" stroke-width="2"/>
</svg>
