<svg width="26" height="26" viewBox="0 0 26 26" fill="none" xmlns="http://www.w3.org/2000/svg">
<path d="M18.0572 17.2239C18.6238 17.2239 19.0831 16.7646 19.0831 16.1981C19.0831 15.6316 18.6238 15.1723 18.0572 15.1723C17.4907 15.1723 17.0314 15.6316 17.0314 16.1981C17.0314 16.7646 17.4907 17.2239 18.0572 17.2239Z" fill="#0085FF"/>
<path fill-rule="evenodd" clip-rule="evenodd" d="M2.66992 7.99153C2.66992 6.29189 4.04775 4.91406 5.74739 4.91406H20.1089C21.8085 4.91406 23.1864 6.29189 23.1864 7.99153V18.2497C23.1864 19.9494 21.8085 21.3272 20.1089 21.3272H5.74739C4.04775 21.3272 2.66992 19.9494 2.66992 18.2497V7.99153ZM5.74739 6.96571C5.18084 6.96571 4.72157 7.42498 4.72157 7.99153V9.01735H21.1347V7.99153C21.1347 7.42498 20.6754 6.96571 20.1089 6.96571H5.74739ZM4.72157 18.2497V11.069H21.1347V18.2497C21.1347 18.8163 20.6754 19.2756 20.1089 19.2756H5.74739C5.18084 19.2756 4.72157 18.8163 4.72157 18.2497Z" fill="#0085FF"/>
</svg>
