<svg width="28" height="27" viewBox="0 0 28 27" fill="none" xmlns="http://www.w3.org/2000/svg">
<g clip-path="url(#clip0_657_14658)">
<path d="M23.5732 0.246338C24.3086 -0.0467867 25.1107 -0.139965 25.8975 -0.0212402L25.8965 -0.0202637C26.3016 0.0285399 26.6888 0.174892 27.0234 0.408447L27.1465 0.500244C27.3858 0.690202 27.588 0.922595 27.7432 1.18579L27.8174 1.32056L27.8184 1.32349L27.876 1.45825C28.141 2.13829 28.0431 2.89215 27.6689 3.58032C27.3198 4.22234 26.729 4.81147 25.959 5.24146L25.6182 5.41528L19.4053 8.31274L16.2617 17.6204V17.6213C15.9126 18.6259 15.3903 19.2437 14.6924 19.426L14.6914 19.427C14.5616 19.4601 14.4279 19.4766 14.2939 19.4768H14.291C13.8127 19.4612 13.353 19.2868 12.9844 18.9817L12.9814 18.9797C12.9147 18.9201 12.8628 18.8453 12.8301 18.762C12.7974 18.6786 12.7846 18.5884 12.793 18.4993L13.502 11.0754L5.63965 14.7493H5.63867C5.56354 14.7834 5.48195 14.8005 5.39941 14.8V14.801C5.33304 14.801 5.26726 14.7884 5.20508 14.7659H5.2041C5.09773 14.7262 5.00615 14.6563 4.94043 14.5657L4.88379 14.469L3.82227 12.1897L3.82129 12.1877C3.6961 11.9036 3.82019 11.5709 4.10156 11.4387H4.10254L4.69141 11.1663L1.19043 9.71997V9.71899C1.15355 9.70464 1.11792 9.68778 1.08496 9.66626L0.990234 9.58911C0.933323 9.53135 0.889395 9.46206 0.861328 9.38599L0.831055 9.26782C0.825375 9.22786 0.82425 9.18722 0.827148 9.14673C0.832989 9.06562 0.856683 8.98673 0.895508 8.91528V8.91431L2.14551 6.66333H2.14648L2.19824 6.58618C2.25622 6.51388 2.33111 6.4564 2.41699 6.41919C2.50279 6.38207 2.5962 6.36616 2.68848 6.37329L2.78027 6.38794L2.78125 6.38892L7.7627 7.65356L10.5654 6.32739L5.48438 2.83618V2.83521C5.42935 2.79705 5.38123 2.74996 5.34277 2.69556L5.30762 2.63892C5.26499 2.56057 5.2412 2.47317 5.23828 2.38403V2.38208C5.23253 2.07641 5.29573 1.77296 5.42383 1.49536C5.55188 1.21799 5.74142 0.973406 5.97754 0.779541L5.98242 0.775635L6.09473 0.701416C6.66799 0.356379 7.4423 0.380273 8.37012 0.729736H8.37109L16.0879 3.74829L23.2627 0.384033L23.5732 0.246338ZM25.708 1.12036C25.0395 1.02464 24.3576 1.13315 23.752 1.43188L23.75 1.43286L8.06055 8.76099H8.05957C7.97061 8.80143 7.87363 8.81842 7.77734 8.81079L7.68262 8.79517L2.92871 7.6145L2.2002 8.90845L6.32031 10.6165L6.32227 10.6174L6.39648 10.6565C6.56106 10.7601 6.66309 10.9426 6.66309 11.1409L6.65723 11.2229C6.64929 11.2773 6.63341 11.3302 6.61035 11.3801L6.57031 11.4524C6.51009 11.5447 6.42394 11.6166 6.32324 11.6614L6.32422 11.6624L5.08398 12.2424L5.66406 13.4768L13.6191 9.7688L13.7598 8.31177L13.7832 8.19751C13.8613 7.9424 14.1097 7.76782 14.3857 7.79419L14.5 7.81665C14.719 7.88346 14.8779 8.07641 14.9023 8.30396L14.9033 8.42017L13.9648 18.261C14.1021 18.3322 14.2581 18.3585 14.4111 18.3303C14.541 18.2956 14.6757 18.1965 14.8086 18.0168C14.9083 17.8821 15.0042 17.7067 15.0938 17.4915L15.1807 17.262L19.0645 5.70825L19.1123 5.60181C19.2467 5.36804 19.5308 5.25294 19.7969 5.34106L19.9043 5.38892C20.1044 5.5043 20.2179 5.72977 20.1904 5.95923L20.1641 6.07349L19.9092 6.82739L25.1328 4.38013L25.3672 4.26099C25.899 3.96756 26.3209 3.57019 26.582 3.15454C26.8815 2.67779 26.9612 2.19228 26.7832 1.80981C26.7016 1.66684 26.5955 1.53975 26.4697 1.43481L26.3359 1.33618C26.149 1.21513 25.9347 1.1418 25.7129 1.12134L25.708 1.12036ZM7.14551 1.6106C6.9224 1.59791 6.75942 1.63645 6.65039 1.71313C6.5314 1.81286 6.45203 1.94946 6.41797 2.09985L11.7695 5.76685L14.6582 4.41724L7.96875 1.80786V1.80884C7.64653 1.68834 7.37031 1.62339 7.14551 1.6106Z" fill="#0084FF" stroke="#0084FF" stroke-width="0.2"/>
</g>
<defs>
<clipPath id="clip0_657_14658">
<rect width="27" height="27" fill="white" transform="translate(0.925781)"/>
</clipPath>
</defs>
</svg>
