<svg width="22" height="20" viewBox="0 0 22 20" fill="none" xmlns="http://www.w3.org/2000/svg">
<path d="M18.8236 15.0679C18.5924 15.0679 18.3603 15.0264 18.1374 14.9421L4.05578 9.59308C2.97503 9.18384 2.11764 8.37764 1.64245 7.32323C1.1673 6.26885 1.13117 5.09253 1.54074 4.01095C1.54153 4.00887 1.54232 4.00676 1.54315 4.00468L2.37204 1.86811C2.53775 1.44099 3.01829 1.22907 3.44553 1.39474C3.87269 1.56045 4.08461 2.04108 3.9189 2.46823L3.09125 4.60154C2.8398 5.26782 2.86245 5.99214 3.15513 6.64155C3.44819 7.29187 3.97701 7.78917 4.64409 8.04174L18.7258 13.3907C18.8581 13.4408 18.9705 13.3732 19.0127 13.3417C19.0629 13.3043 19.1456 13.2223 19.1361 13.0931C19.0626 12.0908 18.5645 11.4076 17.6553 11.0622L14.3704 9.85167C14.0558 9.73573 13.8419 9.44185 13.8283 9.10681L13.6149 3.84449C13.5431 3.02966 13.3673 2.42717 13.0921 2.05348C12.9558 1.86823 12.7705 1.87163 12.6972 1.88171C12.6204 1.89225 12.4872 1.93281 12.4106 2.08376C12.4106 2.08376 11.5091 6.39458 11.4937 6.43511C11.1786 7.26727 10.3843 7.78067 9.54309 7.78075C9.29828 7.78075 9.04969 7.73732 8.80753 7.64561L4.9853 6.1781C4.55756 6.01388 4.34398 5.534 4.5082 5.10626C4.67242 4.67856 5.15242 4.46494 5.57999 4.62916L9.3987 6.09535C9.5988 6.17117 9.82532 6.0807 9.92255 5.89147C9.92255 5.89147 10.8239 1.58144 10.8392 1.54091C11.1091 0.828251 11.7194 0.341154 12.4717 0.237953C13.2248 0.134627 13.9745 0.45344 14.4283 1.06983C14.8957 1.7048 15.1709 2.57189 15.2696 3.7208C15.2707 3.73324 15.4637 8.48636 15.4637 8.48636L18.2327 9.50676C18.235 9.50763 18.2373 9.50846 18.2396 9.50937C19.7634 10.0864 20.6694 11.316 20.7908 12.9718C20.8393 13.6328 20.5455 14.2683 20.0049 14.6717C19.6547 14.9328 19.2407 15.0679 18.8236 15.0679Z" fill="#0085FF"/>
<path d="M20.7967 19.3408H1.21827C0.760081 19.3408 0.388672 18.9694 0.388672 18.5112C0.388672 18.0531 0.760081 17.6816 1.21827 17.6816H20.7967C21.2549 17.6816 21.6263 18.0531 21.6263 18.5112C21.6263 18.9694 21.2549 19.3408 20.7967 19.3408Z" fill="#0085FF"/>
</svg>
