<svg width="22" height="19" viewBox="0 0 22 19" fill="none" xmlns="http://www.w3.org/2000/svg">
<path d="M5.08302 14.1921C4.70143 14.1921 4.31749 14.1419 3.93905 14.0402C2.80869 13.7365 1.86425 13.0109 1.2797 11.9968L0.114029 9.99337C-0.119163 9.5926 0.0167221 9.07865 0.417494 8.84546C0.818265 8.61231 1.33221 8.74811 1.5654 9.14892L2.73275 11.1553C3.09499 11.7836 3.67748 12.2313 4.37471 12.4185C5.07181 12.6059 5.80027 12.5104 6.42571 12.1499L19.6675 4.51673C19.7924 4.44473 19.8114 4.31334 19.8138 4.26019C19.8166 4.19693 19.8054 4.07956 19.6982 4.00416C18.8663 3.41944 18.012 3.37159 17.1591 3.86177L14.0917 5.6761C13.799 5.84922 13.4309 5.82882 13.1593 5.62421L8.90112 2.41833C8.21695 1.95228 7.63235 1.70381 7.16336 1.6798C6.93042 1.66754 6.81473 1.81518 6.77565 1.87899C6.73468 1.94586 6.68103 2.07624 6.75017 2.23295L9.49608 5.63177C9.52366 5.6659 9.54852 5.70208 9.57039 5.74007C9.85164 6.22799 9.92607 6.79626 9.77994 7.34014C9.63428 7.88234 9.28686 8.33563 8.80133 8.61709L5.25496 10.7136C4.85575 10.9496 4.34096 10.8173 4.10495 10.4182C3.86895 10.019 4.00127 9.50415 4.4004 9.26814L7.95013 7.16962C7.95277 7.16807 7.95542 7.16651 7.95811 7.165C8.05747 7.10774 8.12854 7.01522 8.1583 6.90448C8.18378 6.80953 8.17631 6.711 8.13761 6.62217L5.39215 3.22395C5.36457 3.18982 5.33976 3.15363 5.31785 3.11568C4.93265 2.44751 4.94235 1.65734 5.34375 1.00196C5.74553 0.345961 6.47525 -0.0369703 7.24938 0.00282563C8.04622 0.043671 8.90175 0.383909 9.86478 1.04302C9.87524 1.05016 9.88548 1.05754 9.89555 1.06514L13.7204 3.94476L16.3087 2.41384C16.3113 2.41224 16.314 2.41065 16.3168 2.40909C17.7453 1.5856 19.2892 1.66405 20.6637 2.63037C21.2125 3.01607 21.5218 3.65347 21.4912 4.33542C21.4604 5.02203 21.0921 5.63362 20.5061 5.97142L7.26436 13.6046C6.58985 13.9935 5.84128 14.1921 5.08302 14.1921Z" fill="#0085FF"/>
<path d="M20.6536 18.3862H0.839577C0.375879 18.3862 0 18.0103 0 17.5466C0 17.0829 0.375879 16.707 0.839577 16.707H20.6536C21.1173 16.707 21.4932 17.0829 21.4932 17.5466C21.4932 18.0103 21.1173 18.3862 20.6536 18.3862Z" fill="#0085FF"/>
</svg>
