<svg width="26" height="26" viewBox="0 0 26 26" fill="none" xmlns="http://www.w3.org/2000/svg">
<rect width="25" height="25" transform="translate(0.620117 0.298828)" fill="white"/>
<path d="M3.74512 6.54948H5.82845M5.82845 6.54948H22.4951M5.82845 6.54948V21.1328C5.82845 21.6853 6.04794 22.2152 6.43864 22.606C6.82935 22.9967 7.35925 23.2161 7.91178 23.2161H18.3284C18.881 23.2161 19.4109 22.9967 19.8016 22.606C20.1923 22.2152 20.4118 21.6853 20.4118 21.1328V6.54948M8.95345 6.54948V4.46615C8.95345 3.91361 9.17294 3.38371 9.56364 2.99301C9.95435 2.60231 10.4842 2.38281 11.0368 2.38281H15.2035C15.756 2.38281 16.2859 2.60231 16.6766 2.99301C17.0673 3.38371 17.2868 3.91361 17.2868 4.46615V6.54948M11.0368 11.7578V18.0078M15.2035 11.7578V18.0078" stroke="#0085FF" stroke-width="2" stroke-linecap="round" stroke-linejoin="round"/>
</svg>
